# xmcd
#
# Track frame offsets:
#	150
#	13455
#	25428
#	40372
#	53319
#	65257
#	78887
#	89519
#	102883
#	117988
#	133448
#	143521
#	156305
#
# Disc length: 2220 seconds
# Revision: 0
# Processed by: cddbd v1.5.2PL0 Copyright (c) Steve Scherf et al.
# Submitted via: dBpowerAMP V12.0
#
DISCID=ae08aa0d
DTITLE=The Spinney Brothers - Going Home
DYEAR=2009
DGENRE=Country
TTITLE0=Music of the Mountains
TTITLE1=Next Train Smokin'
TTITLE2=I Can't Get You Off of My Mind
TTITLE3=I Haven't Seen Mama in Years
TTITLE4=Devil On the Right
TTITLE5=Snow Covered Mound
TTITLE6=You Better Get Right Little Darlin'
TTITLE7=You'd Better Wake Up
TTITLE8=Going Home
TTITLE9=Cold Cold Heart
TTITLE10=Whiskey Daniels
TTITLE11=Linda Lou
TTITLE12=Walk Through the Shadows
EXTD=
EXTT0=
EXTT1=
EXTT2=
EXTT3=
EXTT4=
EXTT5=
EXTT6=
EXTT7=
EXTT8=
EXTT9=
EXTT10=
EXTT11=
EXTT12=
PLAYORDER=
